# xmcd CD database file
#
# Track frame offsets:
#	150
#	19139
#	42873
#	66268
#	85978
#	112940
#	136456
#	163344
#	180585
#	201903
#
# Disc length: 2954 seconds
#
# Revision: 0
# Processed by: cddbd v1.4PL0 Copyright (c) Steve Scherf et al.
# Submitted via: CDex 1.50beta9
#
DISCID=890b880a
DTITLE=Ive Mendes - Ive Mendes
DYEAR=1900
DGENRE=Jazz
TTITLE0=Natural high
TTITLE1=Blessed love
TTITLE2=Nao vou fugir
TTITLE3=Night night
TTITLE4=Another way
TTITLE5=A beira mar
TTITLE6=Afternoon
TTITLE7=Voce
TTITLE8=Lua
TTITLE9=Casticais
EXTD=
EXTT0=
EXTT1=
EXTT2=
EXTT3=
EXTT4=
EXTT5=
EXTT6=
EXTT7=
EXTT8=
EXTT9=
PLAYORDER=
